<svg xmlns="http://www.w3.org/2000/svg" width="320" height="320" viewBox="0 0 320 320" role="img" aria-labelledby="title desc">
  <title id="title">ArticleOps Studio logo</title>
  <desc id="desc">A time rail, article panel, and dispatch mark for scheduled article operations.</desc>
  <defs>
    <linearGradient id="rail" x1="40" y1="42" x2="270" y2="278" gradientUnits="userSpaceOnUse">
      <stop stop-color="#1D4ED8"/>
      <stop offset=".52" stop-color="#0F766E"/>
      <stop offset="1" stop-color="#F59E0B"/>
    </linearGradient>
    <linearGradient id="panel" x1="92" y1="78" x2="246" y2="252" gradientUnits="userSpaceOnUse">
      <stop stop-color="#F8FAFC"/>
      <stop offset="1" stop-color="#DDE7EF"/>
    </linearGradient>
    <filter id="shadow" x="0" y="0" width="320" height="320" color-interpolation-filters="sRGB">
      <feDropShadow dx="0" dy="18" stdDeviation="18" flood-color="#0F172A" flood-opacity=".18"/>
    </filter>
  </defs>
  <rect width="320" height="320" rx="72" fill="#0F172A"/>
  <path d="M72 232C101 138 151 84 248 58" fill="none" stroke="url(#rail)" stroke-width="22" stroke-linecap="round"/>
  <path d="M76 232h112c37 0 68-30 68-68V60" fill="none" stroke="#E2E8F0" stroke-width="3" stroke-linecap="round" opacity=".35"/>
  <g filter="url(#shadow)">
    <rect x="90" y="82" width="142" height="166" rx="22" fill="url(#panel)"/>
    <rect x="112" y="114" width="78" height="10" rx="5" fill="#1E293B"/>
    <rect x="112" y="142" width="96" height="8" rx="4" fill="#64748B"/>
    <rect x="112" y="164" width="74" height="8" rx="4" fill="#64748B"/>
    <rect x="112" y="186" width="92" height="8" rx="4" fill="#64748B"/>
    <rect x="112" y="214" width="54" height="16" rx="8" fill="#0F766E"/>
  </g>
  <circle cx="72" cy="232" r="17" fill="#F59E0B"/>
  <circle cx="160" cy="112" r="13" fill="#38BDF8"/>
  <circle cx="248" cy="58" r="17" fill="#22C55E"/>
  <path d="M235 214l35-35m0 0h-30m30 0v30" fill="none" stroke="#F8FAFC" stroke-width="12" stroke-linecap="round" stroke-linejoin="round"/>
</svg>
